<svg width="24" height="24" viewBox="0 0 24 24" xmlns="http://www.w3.org/2000/svg">
  <defs>
    <mask id="ring-mask">
      <rect width="24" height="24" fill="white"/>
      <rect x="20.2" y="10.2" width="4" height="3.6" fill="black"/>
    </mask>
  </defs>
  <circle cx="12" cy="12" r="10.2" fill="none" stroke="#C5C5C5" stroke-width="1.8" stroke-linecap="round" mask="url(#ring-mask)"/>
  <circle cx="22.2" cy="12" r="1" fill="#C5C5C5" opacity="0.5"/>
  <rect x="8" y="8" width="8" height="8" rx="1.2" fill="none" stroke="#C5C5C5" stroke-width="1.4"/>
  <rect x="9.5" y="9.5" width="5" height="5" rx="0.6" fill="none" stroke="#C5C5C5" stroke-width="0.9" opacity="0.55"/>
  <line x1="5.5" y1="12" x2="8" y2="12" stroke="#C5C5C5" stroke-width="1.2" opacity="0.65"/>
  <line x1="16" y1="12" x2="17.8" y2="12" stroke="#C5C5C5" stroke-width="1.2" opacity="0.65"/>
  <line x1="12" y1="5.5" x2="12" y2="8" stroke="#C5C5C5" stroke-width="1.2" opacity="0.65"/>
  <line x1="12" y1="16" x2="12" y2="18.5" stroke="#C5C5C5" stroke-width="1.2" opacity="0.65"/>
  <rect x="7" y="9.6" width="1.2" height="0.7" rx="0.15" fill="#C5C5C5" opacity="0.65"/>
  <rect x="7" y="11.65" width="1.2" height="0.7" rx="0.15" fill="#C5C5C5" opacity="0.65"/>
  <rect x="7" y="13.7" width="1.2" height="0.7" rx="0.15" fill="#C5C5C5" opacity="0.65"/>
  <rect x="15.8" y="9.6" width="1.2" height="0.7" rx="0.15" fill="#C5C5C5" opacity="0.65"/>
  <rect x="15.8" y="11.65" width="1.2" height="0.7" rx="0.15" fill="#C5C5C5" opacity="0.65"/>
  <rect x="15.8" y="13.7" width="1.2" height="0.7" rx="0.15" fill="#C5C5C5" opacity="0.65"/>
  <rect x="9.6" y="7" width="0.7" height="1.2" rx="0.15" fill="#C5C5C5" opacity="0.65"/>
  <rect x="11.65" y="7" width="0.7" height="1.2" rx="0.15" fill="#C5C5C5" opacity="0.65"/>
  <rect x="13.7" y="7" width="0.7" height="1.2" rx="0.15" fill="#C5C5C5" opacity="0.65"/>
  <rect x="9.6" y="15.8" width="0.7" height="1.2" rx="0.15" fill="#C5C5C5" opacity="0.65"/>
  <rect x="11.65" y="15.8" width="0.7" height="1.2" rx="0.15" fill="#C5C5C5" opacity="0.65"/>
  <rect x="13.7" y="15.8" width="0.7" height="1.2" rx="0.15" fill="#C5C5C5" opacity="0.65"/>
</svg>
